<svg data-name="Группа 3" xmlns="http://www.w3.org/2000/svg" width="59" height="59"><path data-name="Forma 1 копия 5" d="M51.58 16.75l-5.92-3.417-3.41-5.916h-6.83L29.5 4l-5.92 3.416h-6.83l-3.42 5.917-5.91 3.416v6.831L4 29.5l3.42 5.917v6.832l5.92 3.416 3.41 5.916h6.83L29.5 55l5.92-3.416h6.83l3.41-5.917 5.92-3.417v-6.831L55 29.5l-3.42-5.916V16.75h0z" fill-rule="evenodd" fill="#fb0" stroke="#261c04" stroke-linejoin="round" stroke-width="4"/><path data-name="Фигура 11" d="M9 18s11.5 1.75 19 11a32.375 32.375 0 017 20l-6 4-5-3h-6a13.672 13.672 0 00-9-9v-7l-3-5 3-5v-6z" fill="#ffd324" fill-rule="evenodd"/><path data-name="Forma 1 копия 11" d="M28.65 35.555a1.331 1.331 0 01-1 .44 1.3 1.3 0 01-.99-.44l-4.3-4.7a1.608 1.608 0 010-2.134l1.14-1.246a1.3 1.3 0 011.95 0l2.2 2.413 6.85-7.493a1.3 1.3 0 011.95 0l1.14 1.245a1.609 1.609 0 010 2.135z" fill="#261c04" fill-rule="evenodd"/></svg>