<svg data-name="Группа 4" xmlns="http://www.w3.org/2000/svg" width="58" height="63.75"><path data-name="Forma 1" d="M.5 33.115a6.7 6.7 0 01-.46-3.31 7.671 7.671 0 011.33-3.636l3.43 1.869-.48.794A5.78 5.78 0 004 29.903a7.005 7.005 0 000 1.122 5.929 5.929 0 00.29 1.009 7.669 7.669 0 00.57.9c.16.171.32.333.49.488l.06-.1a20.5 20.5 0 015.57-6.362 29.535 29.535 0 0117.98-5.745 32.027 32.027 0 015.8.523 12.667 12.667 0 015.44-3.077 22.476 22.476 0 016.38-.847 25.636 25.636 0 013.64.243l2.29.365-3.54 10.822a19.694 19.694 0 012.41 3.26L58 34.245v14.009l-6.63 1.741a20.584 20.584 0 01-5.7 6.2l1.07 7.557H32.17l-1.87-2.5c-.44.017-.89.027-1.34.027a32.817 32.817 0 01-5.69-.494l-2.08 2.963H6.58l1.54-10.829a19.015 19.015 0 01-3.34-4.994 16.231 16.231 0 01-1.45-6.68 15.824 15.824 0 01.57-4.222 8.054 8.054 0 01-1.36-.987A8.149 8.149 0 01.5 33.115z" fill-rule="evenodd" fill="#fb0"/><path data-name="Forma 1 копия 2" d="M.5 33.115a6.7 6.7 0 01-.46-3.31 7.671 7.671 0 011.33-3.636l3.43 1.869-.48.794A5.78 5.78 0 004 29.903a7.005 7.005 0 000 1.122 5.929 5.929 0 00.29 1.009 7.669 7.669 0 00.57.9c.16.171.32.333.49.488l.06-.1a20.5 20.5 0 015.57-6.362 29.535 29.535 0 0117.98-5.745 32.027 32.027 0 015.8.523 12.667 12.667 0 015.44-3.077 22.476 22.476 0 016.38-.847 25.636 25.636 0 013.64.243l2.29.365-3.54 10.822a19.694 19.694 0 012.41 3.26L58 34.245v14.009l-6.63 1.741a20.584 20.584 0 01-5.7 6.2l1.07 7.557H32.17l-1.87-2.5c-.44.017-.89.027-1.34.027a32.817 32.817 0 01-5.69-.494l-2.08 2.963H6.58l1.54-10.829a19.015 19.015 0 01-3.34-4.994 16.231 16.231 0 01-1.45-6.68 15.824 15.824 0 01.57-4.222 8.054 8.054 0 01-1.36-.987A8.149 8.149 0 01.5 33.115zm11.26 17.883l.66.659-1.17 8.276h7.73l2.43-3.454 1.4.314a28.172 28.172 0 006.15.672c.73 0 1.47-.029 2.19-.085l1.17-.09 1.99 2.643h7.77l-.78-5.507 1.02-.664a16.881 16.881 0 005.81-6.217l.4-.77 5.38-1.413v-8.23l-5.38-1.415-.4-.768a15.686 15.686 0 00-2.94-3.921l-.82-.808 2.81-8.586q-.285-.007-.6-.008a18.451 18.451 0 00-5.14.667 8.122 8.122 0 00-4.25 2.672l-.8 1.045-1.34-.308a27.306 27.306 0 00-6.09-.675c-11.88 0-21.54 7.276-21.54 16.219a13.69 13.69 0 004.34 9.752zm29.23-17.753a1.943 1.943 0 102.07 1.939 2.012 2.012 0 00-2.07-1.939zm-9.17-5.8l-.9 3.722a16.323 16.323 0 00-3.52-.219 13.422 13.422 0 00-6.92 2.073l-2.4-3.087c5.99-4.06 13.43-2.554 13.74-2.489z" fill="#261c04" fill-rule="evenodd"/><path data-name="Фигура 12" d="M9 36.125s7-.8 15 6 11 18 11 18l-3-3H22l-3 3h-8l1-9c-7.38-4.875-3-15-3-15z" fill="#ffd324" fill-rule="evenodd"/><ellipse data-name="Эллипс 6" cx="24.5" cy="7.031" rx="7.5" ry="7.031" fill="#ebb00d"/></svg>