<svg id="Группа_2" data-name="Группа 2" xmlns="http://www.w3.org/2000/svg" width="50.937" height="51"><defs><style>.cls-2,.cls-3{fill-rule:evenodd}.cls-2{fill:#ffd324}.cls-3{fill:#261c04}</style></defs><path id="Фигура_8" data-name="Фигура 8" d="M847 541.862L870.039 552l23.039-10.137.922-28.57L870.039 505 847 512.372v29.49z" transform="translate(-845.063 -503)" fill-rule="evenodd" fill="#fb0"/><path id="Фигура_10" data-name="Фигура 10" class="cls-2" d="M849 542l20 7v-21s-7.7.29-12.544 3.68C851.309 535.284 849 542 849 542z" transform="translate(-845.063 -503)"/><path id="Фигура_10_копия" data-name="Фигура 10 копия" class="cls-2" d="M893 542l-20 7v-21s7.7.29 12.544 3.68C890.691 535.284 893 542 893 542z" transform="translate(-845.063 -503)"/><path id="Фигура_7" data-name="Фигура 7" class="cls-3" d="M856 517l9-3 5 1-10 4v8l-4-1v-9z" transform="translate(-845.063 -503)"/><path class="cls-3" d="M894.062 510.865l-22.89-7.787a3.17 3.17 0 00-1.407 0l-22.9 7.8a2.223 2.223 0 00-1.813 2.088v29.968a2.084 2.084 0 001.407 1.952l23.306 9.009a2.775 2.775 0 001.522 0l23.306-9a2.083 2.083 0 001.407-1.953v-29.979a2.111 2.111 0 00-1.938-2.098zm-23.536-3.549L889 513l-18.474 6.592L852 513zM849 542v-26l20 7v26zm43-1l-19 8v-26l19-7v25z" transform="translate(-845.063 -503)"/><path id="Прямоугольник_19" data-name="Прямоугольник 19" class="cls-3" d="M884 536l1-1v5l-1 1v-5zm2-1l1-1v5l-1 1v-5zm2-1l1-1v5l-1 1v-5z" transform="translate(-845.063 -503)"/></svg>