<svg data-name="Группа 4" xmlns="http://www.w3.org/2000/svg" width="32" height="32"><path data-name="Прямоугольник 25" fill="#ffa800" d="M1.688 4.156h28.187v25.625H1.688z"/><path data-name="Эллипс 16" d="M18 16c6.344 6.313 6 13 6 13H3V11s8.656-1.312 15 5z" fill-rule="evenodd" fill="#ffc600"/><path data-name="Forma 1" d="M19 17.011a1.987 1.987 0 000 3.974 1.987 1.987 0 000-3.974zm-5.012-2.023a1.987 1.987 0 10-2-1.986 2 2 0 002.003 1.986zM19 11.015a1.987 1.987 0 000 3.973 1.987 1.987 0 000-3.973zM21 3H11v4h10V3zm3 11.988A1.987 1.987 0 1022.012 13 1.986 1.986 0 0024 14.988zm0 6A1.987 1.987 0 1022.012 19 1.987 1.987 0 0024 20.985zm-10.007 0a1.987 1.987 0 10-2-1.986 2 2 0 001.998 1.983zm-4.994 6a1.987 1.987 0 10-2-1.987A2 2 0 009 26.982zM29 3h-2v4h2v22H3V7h2V3H3C1.115 3 0 5.148 0 7v22a2.766 2.766 0 003 3h26c1.885 0 3-1.656 3-3.508V7c0-1.852-1.115-4-3-4zM9 20.985a1.987 1.987 0 10-2-1.986 2 2 0 002 1.986zm0-6a1.987 1.987 0 10-2-1.986 2 2 0 002 1.989zm4.994 11.994a1.987 1.987 0 10-2-1.987 2 2 0 001.997 1.99zM8 6.979a1.889 1.889 0 002-1.746V1.741a2.023 2.023 0 00-4.008 0v3.492A1.889 1.889 0 008 6.984zm16 0a1.878 1.878 0 001.985-1.746V1.741a2 2 0 00-3.971 0v3.492A1.878 1.878 0 0024 6.984z" fill="#261c04" fill-rule="evenodd"/></svg>