<svg id="Группа_3" data-name="Группа 3" xmlns="http://www.w3.org/2000/svg" width="32" height="30"><defs><style>.cls-1{fill:#261c04;fill-rule:evenodd}</style></defs><path id="Прямоугольник_24" data-name="Прямоугольник 24" class="cls-1" d="M896 784l23.036-3 1.988 8.512-25.843 1.31z" transform="translate(-893 -781)"/><path id="Прямоугольник_23" data-name="Прямоугольник 23" fill="#ffb200" d="M1.531 4.594h29.157v24.219H1.531z"/><path id="Эллипс_15" data-name="Эллипс 15" d="M894.188 788.187c-.038-.657 1.311.026 1.957.077a24.1 24.1 0 0121.831 19.481c.262 1.41-2.491 1.269-3.976 1.255-8.857-.083-19 0-19 0v-2s-.314-10.1-.812-18.813z" transform="translate(-893 -781)" fill="#ffcd07" fill-rule="evenodd"/><path id="Forma_1" data-name="Forma 1" class="cls-1" d="M923 784h-28a2.8 2.8 0 00-2 2v23a2.8 2.8 0 002 2h28a2.8 2.8 0 002-2v-23a2.808 2.808 0 00-2-2zm-.655 16.955L913 801a3.157 3.157 0 01-3.112-3.3c0-1.8 1.275-3.7 3.112-3.7h9v7zM896 808v-21h26v5h-9c-3.3 0-5 2.773-5 6a4.87 4.87 0 005 5h9v5h-26zm16-10.526v.035a2.515 2.515 0 100-.035z" transform="translate(-893 -781)"/></svg>