<svg id="Группа_6_копия" data-name="Группа 6 копия" xmlns="http://www.w3.org/2000/svg" width="77" height="83"><defs><style>.cls-5{fill:#ffd200}</style></defs><circle id="Эллипс_9" data-name="Эллипс 9" cx="38" cy="41" r="35" fill="#ffc000"/><path id="Эллипс_9_копия" data-name="Эллипс 9 копия" d="M604.741 270.318c15.137 19.818.854 58.675-33.981 53.925-18.035-24.733 4.178-58.534 33.981-53.925z" transform="translate(-538 -249)" fill-rule="evenodd" fill="#f3af0d"/><path id="Эллипс_9_копия_4" data-name="Эллипс 9 копия 4" d="M611 293c-3.406 7.087-54.983 22.791-59-27 6.3-13.9 58.318-22.786 59 27z" transform="translate(-538 -249)" fill="#fff" opacity=".14" fill-rule="evenodd"/><path id="Forma_1_копия_11" data-name="Forma 1 копия 11" d="M574.345 302.178a2.83 2.83 0 01-3.97 0l-8.58-8.709a2.825 2.825 0 010-3.952l2.272-2.305a2.723 2.723 0 013.893 0l4.4 4.466 13.665-13.871a2.723 2.723 0 013.893 0l2.271 2.3a2.826 2.826 0 010 3.952z" transform="translate(-538 -249)" fill="#261c04" fill-rule="evenodd"/><circle id="Эллипс_9_копия_2" data-name="Эллипс 9 копия 2" class="cls-5" cx="5" cy="78" r="5"/><circle id="Эллипс_9_копия_3" data-name="Эллипс 9 копия 3" class="cls-5" cx="72" cy="5" r="5"/></svg>