<svg data-name="Группа 1" xmlns="http://www.w3.org/2000/svg" width="62" height="54"><path data-name="Forma 1" d="M57.933 11.242a1.236 1.236 0 00-.644-.708L46.994 5.778a49.872 49.872 0 00-6.674-1.757 1.187 1.187 0 00-.236-.023 1.209 1.209 0 00-1.181.951c-.823 3.623-4.029 5.336-7.9 5.336s-7.081-1.712-7.9-5.336a1.212 1.212 0 00-1.182-.951 1.194 1.194 0 00-.236.023A50.113 50.113 0 0015 5.778L4.708 10.534a1.212 1.212 0 00-.641.708 1.2 1.2 0 00.064.953l4.47 8.826a1.212 1.212 0 001.435.618L15 20.167v24.612C15 41.074 13.26 50 30 50c19.409 0 16.994-8.926 16.994-5.221V20.167l4.968 1.473a1.216 1.216 0 001.435-.619l4.471-8.825a1.227 1.227 0 00.065-.954z" fill-rule="evenodd" fill="#fb0" stroke="#261c04" stroke-linejoin="round" stroke-width="4"/><path data-name="Фигура 9" d="M20 46s-2.2-13 7-23 26-6 26-6l-1 3c-4.875-2-7-.063-7 0v24c-14.375 6.625-25 2-25 2z" fill="#ffd324" fill-rule="evenodd"/><path data-name="Forma 1 копия 12" d="M30.648 36.555a1.345 1.345 0 01-1.99 0l-4.3-4.7a1.612 1.612 0 010-2.135l1.138-1.245a1.3 1.3 0 011.952 0l2.206 2.412 6.85-7.493a1.3 1.3 0 011.952 0l1.138 1.245a1.612 1.612 0 010 2.135z" fill="#261c04" fill-rule="evenodd"/></svg>