<svg id="_1" data-name="1" xmlns="http://www.w3.org/2000/svg" width="40" height="29"><defs><style>.cls-1{fill:#f09400;fill-rule:evenodd}.cls-2{fill:#fff;fill-opacity:0;stroke:#fff;stroke-linejoin:round;stroke-width:1px}</style></defs><path id="Эллипс_1" data-name="Эллипс 1" class="cls-1" d="M1180.23 280c6.66 0 12.06 3.3 12.06 7.368s-5.4 7.369-12.06 7.369-12.05-3.3-12.05-7.369 5.4-7.368 12.05-7.368z" transform="translate(-1167 -280)"/><ellipse id="Эллипс_1_копия" data-name="Эллипс 1 копия" class="cls-2" cx="13" cy="6.5" rx="4" ry="2.5"/><ellipse id="Эллипс_1_копия_7" data-name="Эллипс 1 копия 7" class="cls-2" cx="13" cy="6.5" rx="9" ry="5.5"/><path id="Прямоугольник_1" data-name="Прямоугольник 1" class="cls-1" d="M1179.68 295.965h25.18a2.124 2.124 0 012.14 2.105V307a1.921 1.921 0 01-2 2h-25c-11.25 0-13-6.895-13-6.895v-10.877a18.137 18.137 0 0012.68 4.737zM1202 305a1 1 0 011 1v3a1 1 0 01-2 0v-3a1 1 0 011-1zm-5-3a1 1 0 011 1v6a1 1 0 01-2 0v-6a1 1 0 011-1zm-5 3a1 1 0 011 1v3a1 1 0 01-2 0v-3a1 1 0 011-1zm-5-3a1 1 0 011 1v6a1 1 0 01-2 0v-6a1 1 0 011-1zm-5 3a1 1 0 011 1v3a1 1 0 01-2 0v-3a1 1 0 011-1z" transform="translate(-1167 -280)"/><path id="Фигура_1" data-name="Фигура 1" class="cls-1" d="M1192.46 291.228v3.333h-5c1.91 0 5-2.807 5-3.333z" transform="translate(-1167 -280)"/></svg>