<svg data-name="Группа 5 копия" xmlns="http://www.w3.org/2000/svg" width="108" height="108"><path data-name="Forma 1 копия 6" d="M95.56 30l-11.14-6.431L78 12.434H65.136L54 6l-11.137 6.431H30l-6.43 11.138L12.435 30v12.86L6 54l6.431 11.138V78l11.137 6.43L30 95.563h12.859L54 101.993l11.138-6.43H78l6.43-11.14 11.13-6.43V65.134L101.99 54l-6.43-11.138V30h0z" fill-rule="evenodd" fill="#fd1742" stroke="#fd1742" stroke-linejoin="round" stroke-width="8"/><path data-name="Forma 1 копия 7" d="M91.3 33.251l-9.86-5.694-5.69-9.86L27.559 81.44l5.694 9.86h11.386l9.86 5.694L64.36 91.3h11.39l5.69-9.863 9.86-5.694V64.358l5.69-9.861-5.69-9.862V33.251z" fill="#ff4165" fill-rule="evenodd"/></svg>